<svg xmlns="http://www.w3.org/2000/svg" viewBox="0 0 1350 343" width="1350" height="343" preserveAspectRatio="xMidYMid meet" style="width: 100%; height: 100%; transform: translate3d(0px, 0px, 0px); content-visibility: visible;"><defs><clipPath id="__lottie_element_2"><rect width="1350" height="343" x="0" y="0"></rect></clipPath><clipPath id="__lottie_element_4"><path d="M0,0 L1028,0 L1028,343 L0,343z"></path></clipPath><filter id="__lottie_element_6"><feColorMatrix type="matrix" color-interpolation-filters="sRGB" values="1 0 0 0 0 0 1 0 0 0 0 0 1 0 0 0 0 0 1 0"></feColorMatrix><feColorMatrix type="matrix" color-interpolation-filters="sRGB" values="0 0 0 0 1 0 0 0 0 1 0 0 0 0 1 0 0 0 1 0"></feColorMatrix><feColorMatrix type="matrix" color-interpolation-filters="sRGB" values="1 0 0 0 0 0 1 0 0 0 0 0 1 0 0 0 0 0 1 0"></feColorMatrix><feColorMatrix type="matrix" color-interpolation-filters="sRGB" values="0 0 0 0 0.9686275124549866 0 0 0 0 0.6549019813537598 0 0 0 0 0.10588236153125763 0 0 0 1 0"></feColorMatrix></filter><clipPath id="__lottie_element_8"><path d="M0,0 L1028,0 L1028,343 L0,343z"></path></clipPath><clipPath id="__lottie_element_12"><path d="M0,0 L601,0 L601,185 L0,185z"></path></clipPath><mask id="__lottie_element_15" mask-type="alpha"><g style="display: none;"><g><path></path></g></g></mask><clipPath id="__lottie_element_19"><path d="M0,0 L591,0 L591,176 L0,176z"></path></clipPath><mask id="__lottie_element_31" mask-type="alpha"><g style="display: none;"><g><path></path></g></g></mask><clipPath id="__lottie_element_35"><path d="M0,0 L591,0 L591,176 L0,176z"></path></clipPath><mask id="__lottie_element_60" mask-type="alpha"><g style="display: none;"><g><path></path></g><g><path></path></g></g></mask><clipPath id="__lottie_element_64"><path d="M0,0 L204,0 L204,221 L0,221z"></path></clipPath><mask id="__lottie_element_97" mask-type="alpha"><g style="display: none;"><g><path></path></g></g></mask><mask id="__lottie_element_103" mask-type="alpha"><g style="display: none;"><g><path></path></g></g></mask><clipPath id="__lottie_element_110"><path d="M0,0 L601,0 L601,185 L0,185z"></path></clipPath><mask id="__lottie_element_113" mask-type="alpha"><g style="display: block;" transform="matrix(1,0,0,1,300.5,92.5)" opacity="1"><g opacity="1" transform="matrix(0,0,0,1,53,-2.5)"><path fill="rgb(163,0,225)" fill-opacity="1" d=" M103.5,-40 C103.5,-40 103.5,40 103.5,40 C103.5,40 -103.5,40 -103.5,40 C-103.5,40 -103.5,-40 -103.5,-40 C-103.5,-40 103.5,-40 103.5,-40z"></path></g></g></mask><clipPath id="__lottie_element_117"><path d="M0,0 L591,0 L591,176 L0,176z"></path></clipPath><mask id="__lottie_element_129" mask-type="alpha"><g style="display: block;" transform="matrix(2.0650999546051025,0,0,0.6706699728965759,73.61445617675781,89.53131866455078)" opacity="1"><g opacity="1" transform="matrix(-4.124049186706543,0,0,1.0557266473770142,37.26782989501953,5.5)"><path fill="rgb(103,101,98)" fill-opacity="1" d=" M5.5,-43.5 C5.5,-43.5 5.5,43.5 5.5,43.5 C5.5,43.5 -5.5,43.5 -5.5,43.5 C-5.5,43.5 -5.5,-43.5 -5.5,-43.5 C-5.5,-43.5 5.5,-43.5 5.5,-43.5z"></path></g></g></mask><clipPath id="__lottie_element_133"><path d="M0,0 L591,0 L591,176 L0,176z"></path></clipPath><mask id="__lottie_element_158" mask-type="alpha"><g style="display: block;" transform="matrix(0.21965448558330536,0,0,0.22927449643611908,60.685691833496094,124.47059631347656)" opacity="1"><g opacity="1" transform="matrix(1,0,0,1,2,21.5)"><path fill="rgb(103,101,98)" fill-opacity="1" d=" M145,-137.5 C145,-137.5 145,137.5 145,137.5 C145,137.5 -145,137.5 -145,137.5 C-145,137.5 -145,-137.5 -145,-137.5 C-145,-137.5 145,-137.5 145,-137.5z"></path></g><g opacity="1" transform="matrix(1,0,0,1,274.2449951171875,-298.8609924316406)"><path fill="rgb(103,101,98)" fill-opacity="1" d=" M145,-137.5 C145,-137.5 145,137.5 145,137.5 C145,137.5 -145,137.5 -145,137.5 C-145,137.5 -145,-137.5 -145,-137.5 C-145,-137.5 145,-137.5 145,-137.5z"></path></g></g></mask><clipPath id="__lottie_element_162"><path d="M0,0 L204,0 L204,221 L0,221z"></path></clipPath><mask id="__lottie_element_195" mask-type="alpha"><g style="display: block;" transform="matrix(0.21965448558330536,0,0,0.22927449643611908,60.685691833496094,124.47059631347656)" opacity="1"><g opacity="1" transform="matrix(1,0,0,1,2,21.5)"><path fill="rgb(103,101,98)" fill-opacity="1" d=" M145,-137.5 C145,-137.5 145,137.5 145,137.5 C145,137.5 -145,137.5 -145,137.5 C-145,137.5 -145,-137.5 -145,-137.5 C-145,-137.5 145,-137.5 145,-137.5z"></path></g></g></mask><mask id="__lottie_element_201" mask-type="alpha"><g style="display: block;" transform="matrix(0.21965448558330536,0,0,0.22927449643611908,123.085693359375,51.670597076416016)" opacity="1"><g opacity="1" transform="matrix(1,0,0,1,2,21.5)"><path fill="rgb(103,101,98)" fill-opacity="1" d=" M145,-137.5 C145,-137.5 145,137.5 145,137.5 C145,137.5 -145,137.5 -145,137.5 C-145,137.5 -145,-137.5 -145,-137.5 C-145,-137.5 145,-137.5 145,-137.5z"></path></g></g></mask><clipPath id="__lottie_element_208"><path d="M0,0 L601,0 L601,185 L0,185z"></path></clipPath><mask id="__lottie_element_211" mask-type="alpha"><g transform="matrix(1,0,0,1,300.5,92.5)" opacity="1" style="display: block;"><g opacity="1" transform="matrix(0,0,0,1,53,-2.5)"><path fill="rgb(163,0,225)" fill-opacity="1" d=" M103.5,-40 C103.5,-40 103.5,40 103.5,40 C103.5,40 -103.5,40 -103.5,40 C-103.5,40 -103.5,-40 -103.5,-40 C-103.5,-40 103.5,-40 103.5,-40z"></path></g></g></mask><clipPath id="__lottie_element_215"><path d="M0,0 L591,0 L591,176 L0,176z"></path></clipPath><mask id="__lottie_element_227" mask-type="alpha"><g transform="matrix(2.0650999546051025,0,0,0.6706699728965759,73.61445617675781,89.53131866455078)" opacity="1" style="display: block;"><g opacity="1" transform="matrix(0,0,0,1,14.300999641418457,5.5)"><path fill="rgb(103,101,98)" fill-opacity="1" d=" M5.5,-43.5 C5.5,-43.5 5.5,43.5 5.5,43.5 C5.5,43.5 -5.5,43.5 -5.5,43.5 C-5.5,43.5 -5.5,-43.5 -5.5,-43.5 C-5.5,-43.5 5.5,-43.5 5.5,-43.5z"></path></g></g></mask><clipPath id="__lottie_element_231"><path d="M0,0 L591,0 L591,176 L0,176z"></path></clipPath><mask id="__lottie_element_256" mask-type="alpha"><g transform="matrix(0.21965448558330536,0,0,0.22927449643611908,60.685691833496094,124.47059631347656)" opacity="1" style="display: block;"><g opacity="1" transform="matrix(1,0,0,1,2,21.5)"><path fill="rgb(103,101,98)" fill-opacity="1" d=" M145,-137.5 C145,-137.5 145,137.5 145,137.5 C145,137.5 -145,137.5 -145,137.5 C-145,137.5 -145,-137.5 -145,-137.5 C-145,-137.5 145,-137.5 145,-137.5z"></path></g><g opacity="1" transform="matrix(1,0,0,1,274.2449951171875,-298.8609924316406)"><path fill="rgb(103,101,98)" fill-opacity="1" d=" M145,-137.5 C145,-137.5 145,137.5 145,137.5 C145,137.5 -145,137.5 -145,137.5 C-145,137.5 -145,-137.5 -145,-137.5 C-145,-137.5 145,-137.5 145,-137.5z"></path></g></g></mask><clipPath id="__lottie_element_260"><path d="M0,0 L204,0 L204,221 L0,221z"></path></clipPath><mask id="__lottie_element_293" mask-type="alpha"><g transform="matrix(0.21965448558330536,0,0,0.22927449643611908,60.685691833496094,124.47059631347656)" opacity="1" style="display: block;"><g opacity="1" transform="matrix(1,0,0,1,2,21.5)"><path fill="rgb(103,101,98)" fill-opacity="1" d=" M145,-137.5 C145,-137.5 145,137.5 145,137.5 C145,137.5 -145,137.5 -145,137.5 C-145,137.5 -145,-137.5 -145,-137.5 C-145,-137.5 145,-137.5 145,-137.5z"></path></g></g></mask><mask id="__lottie_element_299" mask-type="alpha"><g transform="matrix(0.21965448558330536,0,0,0.22927449643611908,123.085693359375,51.670597076416016)" opacity="1" style="display: block;"><g opacity="1" transform="matrix(1,0,0,1,2,21.5)"><path fill="rgb(103,101,98)" fill-opacity="1" d=" M145,-137.5 C145,-137.5 145,137.5 145,137.5 C145,137.5 -145,137.5 -145,137.5 C-145,137.5 -145,-137.5 -145,-137.5 C-145,-137.5 145,-137.5 145,-137.5z"></path></g></g></mask></defs><g clip-path="url(#__lottie_element_2)"><g clip-path="url(#__lottie_element_4)" filter="url(#__lottie_element_6)" transform="matrix(1.5299999713897705,0,0,1.5299999713897705,-111.41998291015625,-90.89498901367188)" opacity="1" style="display: block;"><g clip-path="url(#__lottie_element_8)" transform="matrix(1,0,0,1,0,0)" opacity="1" style="display: block;"><g clip-path="url(#__lottie_element_208)" transform="matrix(1.5299999713897705,0,0,1.5299999713897705,54.235015869140625,29.975006103515625)" opacity="1" style="display: none;"><g mask="url(#__lottie_element_299)" style="display: block;"><g transform="matrix(-0.6499999761581421,0,0,-0.6499999761581421,150.00015258789062,85.68879699707031)" opacity="1"><g opacity="1" transform="matrix(1,0,0,1,0,0)"><path fill="rgb(29,29,27)" fill-opacity="1" d=" M18.599000930786133,41.95899963378906 C18.599000930786133,41.95899963378906 62.14799880981445,13.08899974822998 62.14799880981445,13.08899974822998 C64.47200012207031,11.49899959564209 66.43000030517578,9.786999702453613 66.43000030517578,6.605999946594238 C66.30799865722656,3.180999994277954 63.49399948120117,0 59.94599914550781,0 C58.111000061035156,0 56.39899826049805,0.8560000061988831 54.930999755859375,1.8350000381469727 C54.930999755859375,1.8350000381469727 4.5320000648498535,35.35300064086914 4.5320000648498535,35.35300064086914 C1.840999960899353,37.066001892089844 -0.11699999868869781,38.534000396728516 0.004999999888241291,41.95899963378906 C0.004999999888241291,45.50699996948242 1.840999960899353,46.85100173950195 4.5320000648498535,48.56399917602539 C4.5320000648498535,48.56399917602539 54.808998107910156,81.95999908447266 54.808998107910156,81.95999908447266 C56.277000427246094,82.93900299072266 57.98899841308594,84.04000091552734 60.069000244140625,84.04000091552734 C63.49399948120117,84.04000091552734 66.43000030517578,80.73699951171875 66.43000030517578,77.31199645996094 C66.30799865722656,74.25399780273438 64.83999633789062,72.66300201416016 62.393001556396484,71.072998046875 C62.393001556396484,71.072998046875 18.599000930786133,41.95899963378906 18.599000930786133,41.95899963378906z"></path></g><g opacity="1" transform="matrix(1,0,0,1,0,0)"></g></g></g><g mask="url(#__lottie_element_293)" style="display: block;"><g transform="matrix(0.6499999761581421,0,0,0.6499999761581421,42.781349182128906,101.61054992675781)" opacity="1"><g opacity="1" transform="matrix(1,0,0,1,0,0)"><path fill="rgb(29,29,27)" fill-opacity="1" d=" M18.599000930786133,41.95899963378906 C18.599000930786133,41.95899963378906 62.14799880981445,13.08899974822998 62.14799880981445,13.08899974822998 C64.47200012207031,11.49899959564209 66.43000030517578,9.786999702453613 66.43000030517578,6.605999946594238 C66.30799865722656,3.180999994277954 63.49399948120117,0 59.94599914550781,0 C58.111000061035156,0 56.39899826049805,0.8560000061988831 54.930999755859375,1.8350000381469727 C54.930999755859375,1.8350000381469727 4.5320000648498535,35.35300064086914 4.5320000648498535,35.35300064086914 C1.840999960899353,37.066001892089844 -0.11699999868869781,38.534000396728516 0.004999999888241291,41.95899963378906 C0.004999999888241291,45.50699996948242 1.840999960899353,46.85100173950195 4.5320000648498535,48.56399917602539 C4.5320000648498535,48.56399917602539 54.808998107910156,81.95999908447266 54.808998107910156,81.95999908447266 C56.277000427246094,82.93900299072266 57.98899841308594,84.04000091552734 60.069000244140625,84.04000091552734 C63.49399948120117,84.04000091552734 66.43000030517578,80.73699951171875 66.43000030517578,77.31199645996094 C66.30799865722656,74.25399780273438 64.83999633789062,72.66300201416016 62.393001556396484,71.072998046875 C62.393001556396484,71.072998046875 18.599000930786133,41.95899963378906 18.599000930786133,41.95899963378906z"></path></g><g opacity="1" transform="matrix(1,0,0,1,0,0)"></g></g></g><g mask="url(#__lottie_element_256)" style="display: none;"><g clip-path="url(#__lottie_element_260)" transform="matrix(0.6499999761581421,0,0,0.6499999761581421,24.725000381469727,21.17500114440918)" opacity="1"><g style="display: block;" transform="matrix(1,0,0,1,122.01899719238281,225.99998474121094)" opacity="1"><g opacity="1" transform="matrix(1,0,0,1,0,0)"><path fill="rgb(29,29,27)" fill-opacity="1" d=" M32.07500076293945,73.22200012207031 C32.07500076293945,73.22200012207031 32.07500076293945,53.99800109863281 32.07500076293945,53.99800109863281 C32.07500076293945,49.46200180053711 30.9950008392334,45.57500076293945 27.7549991607666,42.01100158691406 C31.10300064086914,38.66299819946289 32.07500076293945,34.775001525878906 32.07500076293945,30.131000518798828 C32.07500076293945,30.131000518798828 32.07500076293945,10.800000190734863 32.07500076293945,10.800000190734863 C32.07500076293945,10.800000190734863 47.95100021362305,10.800000190734863 47.95100021362305,10.800000190734863 C50.75899887084961,10.800000190734863 53.349998474121094,9.288000106811523 53.349998474121094,5.400000095367432 C53.349998474121094,1.5119999647140503 50.75899887084961,0 47.95100021362305,0 C47.95100021362305,0 33.26300048828125,0 33.26300048828125,0 C29.267000198364258,0 26.35099983215332,0.7559999823570251 23.650999069213867,3.996000051498413 C21.382999420166016,6.696000099182129 21.274999618530273,8.748000144958496 21.274999618530273,12.095999717712402 C21.274999618530273,12.095999717712402 21.274999618530273,29.159000396728516 21.274999618530273,29.159000396728516 C21.274999618530273,34.775001525878906 19.871999740600586,36.611000061035156 14.14799976348877,36.611000061035156 C14.14799976348877,36.611000061035156 5.400000095367432,36.611000061035156 5.400000095367432,36.611000061035156 C2.5920000076293945,36.611000061035156 0,38.12300109863281 0,42.01100158691406 C0,45.89899826049805 2.5920000076293945,47.4109992980957 5.400000095367432,47.4109992980957 C5.400000095367432,47.4109992980957 14.14799976348877,47.4109992980957 14.14799976348877,47.4109992980957 C19.871999740600586,47.4109992980957 21.274999618530273,49.24599838256836 21.274999618530273,54.86199951171875 C21.274999618530273,54.86199951171875 21.274999618530273,71.9260025024414 21.274999618530273,71.9260025024414 C21.274999618530273,75.27400207519531 21.382999420166016,77.32599639892578 23.650999069213867,80.0260009765625 C26.35099983215332,83.26599884033203 29.267000198364258,84.02200317382812 33.26300048828125,84.02200317382812 C33.26300048828125,84.02200317382812 47.95100021362305,84.02200317382812 47.95100021362305,84.02200317382812 C50.75899887084961,84.02200317382812 53.349998474121094,82.51000213623047 53.349998474121094,78.62200164794922 C53.349998474121094,74.73400115966797 50.75899887084961,73.22200012207031 47.95100021362305,73.22200012207031 C47.95100021362305,73.22200012207031 32.07500076293945,73.22200012207031 32.07500076293945,73.22200012207031z"></path></g></g><g style="display: block;" transform="matrix(1,0,0,1,27.5,223.62098693847656)" opacity="1"><g opacity="1" transform="matrix(1,0,0,1,0,0)"><path fill="rgb(29,29,27)" fill-opacity="1" d=" M32.07500076293945,73.22200012207031 C32.07500076293945,73.22200012207031 32.07500076293945,53.99800109863281 32.07500076293945,53.99800109863281 C32.07500076293945,49.46200180053711 30.9950008392334,45.57500076293945 27.7549991607666,42.01100158691406 C31.10300064086914,38.66299819946289 32.07500076293945,34.775001525878906 32.07500076293945,30.131000518798828 C32.07500076293945,30.131000518798828 32.07500076293945,10.800000190734863 32.07500076293945,10.800000190734863 C32.07500076293945,10.800000190734863 47.95100021362305,10.800000190734863 47.95100021362305,10.800000190734863 C50.75899887084961,10.800000190734863 53.349998474121094,9.288000106811523 53.349998474121094,5.400000095367432 C53.349998474121094,1.5119999647140503 50.75899887084961,0 47.95100021362305,0 C47.95100021362305,0 33.26300048828125,0 33.26300048828125,0 C29.267000198364258,0 26.35099983215332,0.7559999823570251 23.650999069213867,3.996000051498413 C21.382999420166016,6.696000099182129 21.274999618530273,8.748000144958496 21.274999618530273,12.095999717712402 C21.274999618530273,12.095999717712402 21.274999618530273,29.159000396728516 21.274999618530273,29.159000396728516 C21.274999618530273,34.775001525878906 19.871999740600586,36.611000061035156 14.14799976348877,36.611000061035156 C14.14799976348877,36.611000061035156 5.400000095367432,36.611000061035156 5.400000095367432,36.611000061035156 C2.5920000076293945,36.611000061035156 0,38.12300109863281 0,42.01100158691406 C0,45.89899826049805 2.5920000076293945,47.4109992980957 5.400000095367432,47.4109992980957 C5.400000095367432,47.4109992980957 14.14799976348877,47.4109992980957 14.14799976348877,47.4109992980957 C19.871999740600586,47.4109992980957 21.274999618530273,49.24599838256836 21.274999618530273,54.86199951171875 C21.274999618530273,54.86199951171875 21.274999618530273,71.9260025024414 21.274999618530273,71.9260025024414 C21.274999618530273,75.27400207519531 21.382999420166016,77.32599639892578 23.650999069213867,80.0260009765625 C26.35099983215332,83.26599884033203 29.267000198364258,84.02200317382812 33.26300048828125,84.02200317382812 C33.26300048828125,84.02200317382812 47.95100021362305,84.02200317382812 47.95100021362305,84.02200317382812 C50.75899887084961,84.02200317382812 53.349998474121094,82.51000213623047 53.349998474121094,78.62200164794922 C53.349998474121094,74.73400115966797 50.75899887084961,73.22200012207031 47.95100021362305,73.22200012207031 C47.95100021362305,73.22200012207031 32.07500076293945,73.22200012207031 32.07500076293945,73.22200012207031z"></path></g></g><g style="display: block;" transform="matrix(1,0,0,1,150.5189971923828,228.99998474121094)" opacity="1"><g opacity="1" transform="matrix(1,0,0,1,0,0)"><path fill="rgb(29,29,27)" fill-opacity="1" d=" M9.748000144958496,13.28600025177002 C11.336999893188477,13.28600025177002 12.491999626159668,13.28600025177002 13.503000259399414,11.913999557495117 C14.29699993133545,10.831000328063965 14.29699993133545,10.036999702453613 14.29699993133545,8.664999961853027 C14.29699993133545,8.664999961853027 14.29699993133545,4.620999813079834 14.29699993133545,4.620999813079834 C14.29699993133545,3.249000072479248 14.29699993133545,2.4549999237060547 13.503000259399414,1.371999979019165 C12.491999626159668,0 11.336999893188477,0 9.748000144958496,0 C9.748000144958496,0 4.548999786376953,0 4.548999786376953,0 C2.9600000381469727,0 1.8049999475479126,0 0.7940000295639038,1.371999979019165 C0,2.4549999237060547 0,3.249000072479248 0,4.620999813079834 C0,4.620999813079834 0,8.664999961853027 0,8.664999961853027 C0,10.036999702453613 0,10.831000328063965 0.7940000295639038,11.913999557495117 C1.8049999475479126,13.28600025177002 2.9600000381469727,13.28600025177002 4.548999786376953,13.28600025177002 C4.548999786376953,13.28600025177002 9.748000144958496,13.28600025177002 9.748000144958496,13.28600025177002z M9.748000144958496,37.83700180053711 C11.336999893188477,37.83700180053711 12.491999626159668,37.83700180053711 13.503000259399414,36.46500015258789 C14.29699993133545,35.38199996948242 14.29699993133545,34.5880012512207 14.29699993133545,33.215999603271484 C14.29699993133545,33.215999603271484 14.29699993133545,29.172000885009766 14.29699993133545,29.172000885009766 C14.29699993133545,27.799999237060547 14.29699993133545,27.006000518798828 13.503000259399414,25.92300033569336 C12.491999626159668,24.551000595092773 11.336999893188477,24.551000595092773 9.748000144958496,24.551000595092773 C9.748000144958496,24.551000595092773 4.548999786376953,24.551000595092773 4.548999786376953,24.551000595092773 C2.9600000381469727,24.551000595092773 1.8049999475479126,24.551000595092773 0.7940000295639038,25.92300033569336 C0,27.006000518798828 0,27.799999237060547 0,29.172000885009766 C0,29.172000885009766 0,33.215999603271484 0,33.215999603271484 C0,34.5880012512207 0,35.38199996948242 0.7940000295639038,36.46500015258789 C1.8049999475479126,37.83700180053711 2.9600000381469727,37.83700180053711 4.548999786376953,37.83700180053711 C4.548999786376953,37.83700180053711 9.748000144958496,37.83700180053711 9.748000144958496,37.83700180053711z"></path></g></g><g style="display: block;" transform="matrix(1,0,0,1,31.456998825073242,258.7149963378906)" opacity="1"><g opacity="1" transform="matrix(1,0,0,1,0,0)"><path fill="rgb(29,29,27)" fill-opacity="1" d=" M14.609999656677246,0 C14.609999656677246,0 0,0 0,0 C0,0 0,3.688999891281128 0,3.688999891281128 C0,3.688999891281128 3.1730000972747803,19.4060001373291 3.1730000972747803,19.4060001373291 C3.690000057220459,21.915000915527344 3.9839999675750732,23.833999633789062 7.304999828338623,23.833999633789062 C10.62600040435791,23.833999633789062 10.920000076293945,21.915000915527344 11.437000274658203,19.4060001373291 C11.437000274658203,19.4060001373291 14.609999656677246,3.688999891281128 14.609999656677246,3.688999891281128 C14.609999656677246,3.688999891281128 14.609999656677246,0 14.609999656677246,0z"></path></g></g><g style="display: block;" transform="matrix(1,0,0,1,57.28300094604492,258.7149963378906)" opacity="1"><g opacity="1" transform="matrix(1,0,0,1,0,0)"><path fill="rgb(29,29,27)" fill-opacity="1" d=" M14.609999656677246,0 C14.609999656677246,0 0,0 0,0 C0,0 0,3.688999891281128 0,3.688999891281128 C0,3.688999891281128 3.1730000972747803,19.4060001373291 3.1730000972747803,19.4060001373291 C3.690000057220459,21.915000915527344 3.9839999675750732,23.833999633789062 7.304999828338623,23.833999633789062 C10.62600040435791,23.833999633789062 10.920000076293945,21.915000915527344 11.437000274658203,19.4060001373291 C11.437000274658203,19.4060001373291 14.609999656677246,3.688999891281128 14.609999656677246,3.688999891281128 C14.609999656677246,3.688999891281128 14.609999656677246,0 14.609999656677246,0z"></path></g></g><g style="display: block;" transform="matrix(1,0,0,1,54.17499923706055,265.6319885253906)" opacity="1"></g><g style="display: block;" transform="matrix(1,0,0,1,31.5989990234375,225.39198303222656)" opacity="1"><g opacity="1" transform="matrix(1,0,0,1,0,0)"><path fill="rgb(29,29,27)" fill-opacity="1" d=" M34.125999450683594,65.25800323486328 C34.125999450683594,65.25800323486328 27.420000076293945,71.00499725341797 27.420000076293945,71.00499725341797 C27.420000076293945,71.00499725341797 17.72100067138672,71.00499725341797 17.72100067138672,71.00499725341797 C11.375,71.00499725341797 11.973999977111816,69.20899963378906 11.973999977111816,66.21600341796875 C11.973999977111816,66.21600341796875 11.973999977111816,59.5099983215332 11.973999977111816,59.5099983215332 C11.973999977111816,59.5099983215332 21.194000244140625,51.36800003051758 21.194000244140625,51.36800003051758 C21.194000244140625,51.36800003051758 34.125999450683594,65.25800323486328 34.125999450683594,65.25800323486328z M22.152000427246094,34.9640007019043 C22.152000427246094,34.9640007019043 11.973999977111816,23.70800018310547 11.973999977111816,23.70800018310547 C11.973999977111816,23.70800018310547 11.973999977111816,19.517000198364258 11.973999977111816,19.517000198364258 C11.973999977111816,14.847000122070312 11.135000228881836,11.973999977111816 16.76300048828125,11.973999977111816 C16.76300048828125,11.973999977111816 30.05500030517578,11.973999977111816 30.05500030517578,11.973999977111816 C36.04199981689453,11.973999977111816 35.323001861572266,14.368000030517578 35.323001861572266,19.517000198364258 C35.323001861572266,19.517000198364258 35.323001861572266,23.70800018310547 35.323001861572266,23.70800018310547 C35.323001861572266,23.70800018310547 22.152000427246094,34.9640007019043 22.152000427246094,34.9640007019043z M56.03799819946289,62.025001525878906 C57.595001220703125,60.70800018310547 59.1510009765625,59.03099822998047 59.1510009765625,56.875999450683594 C59.1510009765625,53.52299880981445 56.39699935913086,50.650001525878906 53.04399871826172,50.650001525878906 C50.16999816894531,50.650001525878906 47.41699981689453,53.643001556396484 45.38100051879883,55.319000244140625 C45.38100051879883,55.319000244140625 43.10599899291992,57.23500061035156 43.10599899291992,57.23500061035156 C43.10599899291992,57.23500061035156 30.29400062561035,43.70500183105469 30.29400062561035,43.70500183105469 C30.29400062561035,43.70500183105469 43.10599899291992,32.68899917602539 43.10599899291992,32.68899917602539 C46.577999114990234,29.695999145507812 47.297000885009766,29.45599937438965 47.297000885009766,24.9060001373291 C47.297000885009766,24.9060001373291 47.297000885009766,16.52400016784668 47.297000885009766,16.52400016784668 C47.297000885009766,6.10699987411499 40.112998962402344,0 30.05500030517578,0 C30.05500030517578,0 16.76300048828125,0 16.76300048828125,0 C6.824999809265137,0 0,6.585999965667725 0,16.52400016784668 C0,16.52400016784668 0,24.9060001373291 0,24.9060001373291 C0,27.540000915527344 0,28.496999740600586 1.7960000038146973,30.533000946044922 C1.7960000038146973,30.533000946044922 13.052000045776367,42.62699890136719 13.052000045776367,42.62699890136719 C13.052000045776367,42.62699890136719 3.3529999256134033,51.12900161743164 3.3529999256134033,51.12900161743164 C0,54.00299835205078 0,54.48099899291992 0,58.672000885009766 C0,58.672000885009766 0,66.21600341796875 0,66.21600341796875 C0,71.125 1.1970000267028809,75.43599700927734 5.0289998054504395,79.02799987792969 C8.50100040435791,82.26100158691406 12.45300006866455,82.97899627685547 17.003000259399414,82.97899627685547 C17.003000259399414,82.97899627685547 27.89900016784668,82.97899627685547 27.89900016784668,82.97899627685547 C31.611000061035156,82.97899627685547 31.969999313354492,82.62000274658203 34.7239990234375,80.34500122070312 C34.7239990234375,80.34500122070312 42.268001556396484,73.9990005493164 42.268001556396484,73.9990005493164 C42.268001556396484,73.9990005493164 48.375,80.34500122070312 48.375,80.34500122070312 C49.8120002746582,81.9020004272461 51.249000549316406,82.97899627685547 53.40399932861328,82.97899627685547 C56.875999450683594,82.97899627685547 59.1510009765625,80.34500122070312 59.1510009765625,76.99199676513672 C59.1510009765625,74.23799896240234 55.67900085449219,70.76599884033203 53.882999420166016,68.97000122070312 C53.882999420166016,68.97000122070312 51.24800109863281,66.21600341796875 51.24800109863281,66.21600341796875 C51.24800109863281,66.21600341796875 56.03799819946289,62.025001525878906 56.03799819946289,62.025001525878906z"></path></g></g><g style="display: block;" transform="matrix(1,0,0,1,130.1179962158203,226.33200073242188)" opacity="1"><g opacity="1" transform="matrix(1,0,0,1,0,0)"><path fill="rgb(29,29,27)" fill-opacity="1" d=" M53.16400146484375,11.973999977111816 C56.277000427246094,11.973999977111816 59.1510009765625,10.29800033569336 59.1510009765625,5.986999988555908 C59.1510009765625,1.6759999990463257 56.277000427246094,0 53.16400146484375,0 C53.16400146484375,0 5.986999988555908,0 5.986999988555908,0 C2.874000072479248,0 0,1.6759999990463257 0,5.986999988555908 C0,10.29800033569336 2.874000072479248,11.973999977111816 5.986999988555908,11.973999977111816 C5.986999988555908,11.973999977111816 53.16400146484375,11.973999977111816 53.16400146484375,11.973999977111816z M53.16400146484375,37.35900115966797 C56.277000427246094,37.35900115966797 59.1510009765625,35.68299865722656 59.1510009765625,31.371999740600586 C59.1510009765625,27.06100082397461 56.277000427246094,25.385000228881836 53.16400146484375,25.385000228881836 C53.16400146484375,25.385000228881836 5.986999988555908,25.385000228881836 5.986999988555908,25.385000228881836 C2.874000072479248,25.385000228881836 0,27.06100082397461 0,31.371999740600586 C0,35.68299865722656 2.874000072479248,37.35900115966797 5.986999988555908,37.35900115966797 C5.986999988555908,37.35900115966797 53.16400146484375,37.35900115966797 53.16400146484375,37.35900115966797z"></path></g></g><g style="display: none;" transform="matrix(-1,0,0,-1,192.90899658203125,310.0309753417969)" opacity="1"><g opacity="1" transform="matrix(1,0,0,1,0,0)"><path fill="rgb(29,29,27)" fill-opacity="1" d=" M18.599000930786133,41.95899963378906 C18.599000930786133,41.95899963378906 62.14799880981445,13.08899974822998 62.14799880981445,13.08899974822998 C64.47200012207031,11.49899959564209 66.43000030517578,9.786999702453613 66.43000030517578,6.605999946594238 C66.30799865722656,3.180999994277954 63.49399948120117,0 59.94599914550781,0 C58.111000061035156,0 56.39899826049805,0.8560000061988831 54.930999755859375,1.8350000381469727 C54.930999755859375,1.8350000381469727 4.5320000648498535,35.35300064086914 4.5320000648498535,35.35300064086914 C1.840999960899353,37.066001892089844 -0.11699999868869781,38.534000396728516 0.004999999888241291,41.95899963378906 C0.004999999888241291,45.50699996948242 1.840999960899353,46.85100173950195 4.5320000648498535,48.56399917602539 C4.5320000648498535,48.56399917602539 54.808998107910156,81.95999908447266 54.808998107910156,81.95999908447266 C56.277000427246094,82.93900299072266 57.98899841308594,84.04000091552734 60.069000244140625,84.04000091552734 C63.49399948120117,84.04000091552734 66.43000030517578,80.73699951171875 66.43000030517578,77.31199645996094 C66.30799865722656,74.25399780273438 64.83999633789062,72.66300201416016 62.393001556396484,71.072998046875 C62.393001556396484,71.072998046875 18.599000930786133,41.95899963378906 18.599000930786133,41.95899963378906z"></path></g><g opacity="1" transform="matrix(1,0,0,1,0,0)"></g></g><g style="display: none;" transform="matrix(1,0,0,1,27.959999084472656,224.8619842529297)" opacity="1"><g opacity="1" transform="matrix(1,0,0,1,0,0)"><path fill="rgb(29,29,27)" fill-opacity="1" d=" M18.599000930786133,41.95899963378906 C18.599000930786133,41.95899963378906 62.14799880981445,13.08899974822998 62.14799880981445,13.08899974822998 C64.47200012207031,11.49899959564209 66.43000030517578,9.786999702453613 66.43000030517578,6.605999946594238 C66.30799865722656,3.180999994277954 63.49399948120117,0 59.94599914550781,0 C58.111000061035156,0 56.39899826049805,0.8560000061988831 54.930999755859375,1.8350000381469727 C54.930999755859375,1.8350000381469727 4.5320000648498535,35.35300064086914 4.5320000648498535,35.35300064086914 C1.840999960899353,37.066001892089844 -0.11699999868869781,38.534000396728516 0.004999999888241291,41.95899963378906 C0.004999999888241291,45.50699996948242 1.840999960899353,46.85100173950195 4.5320000648498535,48.56399917602539 C4.5320000648498535,48.56399917602539 54.808998107910156,81.95999908447266 54.808998107910156,81.95999908447266 C56.277000427246094,82.93900299072266 57.98899841308594,84.04000091552734 60.069000244140625,84.04000091552734 C63.49399948120117,84.04000091552734 66.43000030517578,80.73699951171875 66.43000030517578,77.31199645996094 C66.30799865722656,74.25399780273438 64.83999633789062,72.66300201416016 62.393001556396484,71.072998046875 C62.393001556396484,71.072998046875 18.599000930786133,41.95899963378906 18.599000930786133,41.95899963378906z"></path></g><g opacity="1" transform="matrix(1,0,0,1,0,0)"></g></g></g></g><g transform="matrix(0.6499999761581421,0,0,0.6499999761581421,105.31849670410156,99.66639709472656)" opacity="1" style="display: block;"><g opacity="1" transform="matrix(1,0,0,1,0,0)"><path fill="rgb(29,29,27)" fill-opacity="1" d=" M48.112998962402344,19.843000411987305 C48.112998962402344,19.843000411987305 55.49100112915039,16.618000030517578 55.49100112915039,16.618000030517578 C55.49100112915039,16.618000030517578 53.077999114990234,0 31.172000885009766,0 C9.237000465393066,0 2.818000078201294,15.918999671936035 0.8980000019073486,31.40399932861328 C-1.0740000009536743,46.88999938964844 0.5210000276565552,63.391998291015625 2.615000009536743,69.06400299072266 C4.679999828338623,74.66899871826172 7.76200008392334,86.84200286865234 22.77899932861328,90.01000213623047 C37.80099868774414,93.23699951171875 45.49700164794922,87.86000061035156 47.00899887084961,86.697998046875 C48.49100112915039,85.53700256347656 54.097999572753906,80.39199829101562 55.49300003051758,74.32099914550781 C55.49300003051758,74.32099914550781 48.257999420166016,71.35800170898438 48.257999420166016,71.35800170898438 C48.257999420166016,71.35800170898438 44.104000091552734,83.7040023803711 28.76300048828125,81.6729965209961 C13.394000053405762,79.60800170898438 11.447999954223633,63.400001525878906 10.604999542236328,54.915000915527344 C9.819999694824219,46.43000030517578 10.288000106811523,27.312000274658203 14.293999671936035,20.398000717163086 C18.304000854492188,13.539999961853027 23.707000732421875,8.92300033569336 31.726999282836914,8.92300033569336 C39.777000427246094,8.918999671936035 45.96500015258789,13.394000053405762 48.112998962402344,19.843000411987305z"></path></g></g><g transform="matrix(0.6499999761581421,0,0,0.6499999761581421,41.53205108642578,26.99055290222168)" opacity="1" style="display: block;"><g opacity="1" transform="matrix(1,0,0,1,0,0)"><path fill="rgb(29,29,27)" fill-opacity="1" d=" M0,0 C0,0 10.081999778747559,0 10.081999778747559,0 C10.081999778747559,0 10.081999778747559,81.08899688720703 10.081999778747559,81.08899688720703 C10.081999778747559,81.08899688720703 57.17900085449219,81.08899688720703 57.17900085449219,81.08899688720703 C57.17900085449219,81.08899688720703 57.17900085449219,90.8499984741211 57.17900085449219,90.8499984741211 C57.17900085449219,90.8499984741211 0,90.8499984741211 0,90.8499984741211 C0,90.8499984741211 0,0 0,0z"></path></g></g><g mask="url(#__lottie_element_227)" style="display: block;"><g clip-path="url(#__lottie_element_231)" transform="matrix(1,0,0,1,-17,5)" opacity="1"><g transform="matrix(1,0,0,1,58.6349983215332,58.590003967285156)" opacity="1" style="display: block;"><g opacity="1" transform="matrix(1,0,0,1,0,0)"><path fill="rgb(29,29,27)" fill-opacity="1" d=" M0,0 C0,0 6.501999855041504,0 6.501999855041504,0 C6.501999855041504,0 6.501999855041504,52.29499816894531 6.501999855041504,52.29499816894531 C6.501999855041504,52.29499816894531 36.875,52.29499816894531 36.875,52.29499816894531 C36.875,52.29499816894531 36.875,58.59000015258789 36.875,58.59000015258789 C36.875,58.59000015258789 0,58.59000015258789 0,58.59000015258789 C0,58.59000015258789 0,0 0,0z"></path></g></g><g transform="matrix(1,0,0,1,121.51699829101562,58.590003967285156)" opacity="1" style="display: block;"><g opacity="1" transform="matrix(1,0,0,1,0,0)"><path fill="rgb(29,29,27)" fill-opacity="1" d=" M0,0 C0,0 34.119998931884766,0 34.119998931884766,0 C34.119998931884766,0 34.119998931884766,5.919000148773193 34.119998931884766,5.919000148773193 C34.119998931884766,5.919000148773193 6.690000057220459,5.919000148773193 6.690000057220459,5.919000148773193 C6.690000057220459,5.919000148773193 6.690000057220459,26.250999450683594 6.690000057220459,26.250999450683594 C6.690000057220459,26.250999450683594 34.119998931884766,26.250999450683594 34.119998931884766,26.250999450683594 C34.119998931884766,26.250999450683594 34.119998931884766,32.358001708984375 34.119998931884766,32.358001708984375 C34.119998931884766,32.358001708984375 6.521999835968018,32.358001708984375 6.521999835968018,32.358001708984375 C6.521999835968018,32.358001708984375 6.521999835968018,52.08700180053711 6.521999835968018,52.08700180053711 C6.521999835968018,52.08700180053711 34.119998931884766,52.08700180053711 34.119998931884766,52.08700180053711 C34.119998931884766,52.08700180053711 34.119998931884766,58.5880012512207 34.119998931884766,58.5880012512207 C34.119998931884766,58.5880012512207 0,58.5880012512207 0,58.5880012512207 C0,58.5880012512207 0,0 0,0z"></path></g></g><g transform="matrix(1,0,0,1,181.64199829101562,58.590003967285156)" opacity="1" style="display: block;"><g opacity="1" transform="matrix(1,0,0,1,0,0)"><path fill="rgb(29,29,27)" fill-opacity="1" d=" M0,0 C0,0 36.875,0 36.875,0 C36.875,0 36.875,5.73199987411499 36.875,5.73199987411499 C36.875,5.73199987411499 21.881999969482422,5.73199987411499 21.881999969482422,5.73199987411499 C21.881999969482422,5.73199987411499 21.881999969482422,58.5890007019043 21.881999969482422,58.5890007019043 C21.881999969482422,58.5890007019043 14.821999549865723,58.5890007019043 14.821999549865723,58.5890007019043 C14.821999549865723,58.5890007019043 14.821999549865723,5.921000003814697 14.821999549865723,5.921000003814697 C14.821999549865723,5.921000003814697 0,5.921000003814697 0,5.921000003814697 C0,5.921000003814697 0,0 0,0z"></path></g></g><g transform="matrix(1,0,0,1,228.27000427246094,58.590003967285156)" opacity="1" style="display: block;"><g opacity="1" transform="matrix(1,0,0,1,0,0)"><path fill="rgb(29,29,27)" fill-opacity="1" d=" M0,8.769000053405762 C0,8.769000053405762 0,0 0,0 C0,0 6.706999778747559,0 6.706999778747559,0 C6.706999778747559,0 6.706999778747559,10.75 6.706999778747559,10.75 C6.818999767303467,14.079000473022461 6.139999866485596,17.933000564575195 2.734999895095825,20.94700050354004 C2.734999895095825,20.94700050354004 1.3860000371932983,19.40999984741211 1.3860000371932983,19.40999984741211 C1.3860000371932983,19.40999984741211 4.901000022888184,17.427000045776367 4.270999908447266,8.769000053405762 C4.270999908447266,8.769000053405762 0,8.769000053405762 0,8.769000053405762z"></path></g></g><g transform="matrix(1,0,0,1,244.74900817871094,58.58199691772461)" opacity="1" style="display: block;"><g opacity="1" transform="matrix(1,0,0,1,0,0)"><path fill="rgb(29,29,27)" fill-opacity="1" d=" M28.104000091552734,10.644000053405762 C28.104000091552734,10.644000053405762 32.07600021362305,8.319999694824219 32.07600021362305,8.319999694824219 C32.07600021362305,8.319999694824219 29.642000198364258,-0.01899999938905239 17.29199981689453,0 C4.9629998207092285,0.039000000804662704 1.2350000143051147,6.840000152587891 1.3849999904632568,16.07699966430664 C1.534999966621399,25.312999725341797 7.906000137329102,28.23699951171875 15.156999588012695,31.47800064086914 C22.38800048828125,34.742000579833984 27.20400047302246,35.750999450683594 26.849000930786133,44.78200149536133 C26.472999572753906,53.8129997253418 16.375,52.72700119018555 16.375,52.72700119018555 C11.58899974822998,52.94200134277344 7.058000087738037,50.564998626708984 4.514999866485596,46.505001068115234 C4.514999866485596,46.505001068115234 0,49.29600143432617 0,49.29600143432617 C0,49.29600143432617 3.5399999618530273,58.36600112915039 15.58899974822998,58.590999603271484 C27.65399932861328,58.83399963378906 32.224998474121094,53.15700149536133 32.77000045776367,45.625 C33.275001525878906,38.07500076293945 31.065000534057617,32.35900115966797 24.393999099731445,28.801000595092773 C17.724000930786133,25.260000228881836 14.107000350952148,25.183000564575195 10.866999626159668,22.56100082397461 C7.603000164031982,19.937999725341797 6.25600004196167,17.33300018310547 7.698999881744385,11.805000305175781 C9.086000442504883,6.241000175476074 15.156999588012695,5.453999996185303 19.16699981689453,5.604000091552734 C22.80299949645996,5.677000045776367 26.15999984741211,7.570000171661377 28.104000091552734,10.644000053405762z"></path></g></g></g></g><g mask="url(#__lottie_element_211)" style="display: block;"><g clip-path="url(#__lottie_element_215)" transform="matrix(1,0,0,1,0,3.75)" opacity="1"><g transform="matrix(1,0,0,1,365.1319885253906,58.59400177001953)" opacity="1" style="display: block;"><g opacity="1" transform="matrix(1,0,0,1,0,0)"><path fill="rgb(29,29,27)" fill-opacity="1" d=" M20.4060001373291,52.7599983215332 C9.555999755859375,52.7599983215332 6.572000026702881,42.744998931884766 6.572000026702881,29.31399917602539 C6.572000026702881,15.16100025177002 9.734999656677246,5.818999767303467 20.437999725341797,5.818999767303467 C31.566999435424805,5.818999767303467 34.23899841308594,16.35700035095215 34.23899841308594,29.31399917602539 C34.23899841308594,42.393001556396484 31.354999542236328,52.7599983215332 20.4060001373291,52.7599983215332z M20.364999771118164,0 C4.385000228881836,0 0,11.989999771118164 0,29.363000869750977 C0,45.45800018310547 3.9170000553131104,58.58599853515625 20.381000518798828,58.58599853515625 C36.48400115966797,58.58599853515625 40.75400161743164,46.02299880981445 40.75400161743164,29.363000869750977 C40.75400161743164,13.432000160217285 37.426998138427734,0 20.364999771118164,0z"></path></g></g><g transform="matrix(1,0,0,1,428.6800231933594,58.673004150390625)" opacity="1" style="display: block;"><g opacity="1" transform="matrix(1,0,0,1,0,0)"><path fill="rgb(29,29,27)" fill-opacity="1" d=" M17.08799934387207,52.51900100708008 C17.08799934387207,52.51900100708008 7.008999824523926,52.51900100708008 7.008999824523926,52.51900100708008 C7.008999824523926,52.51900100708008 7.008999824523926,5.89900016784668 7.008999824523926,5.89900016784668 C7.008999824523926,5.89900016784668 14.27299976348877,5.89900016784668 14.27299976348877,5.89900016784668 C17.586000442504883,5.89900016784668 29.513999938964844,4.064000129699707 29.513999938964844,29.263999938964844 C29.513999938964844,52.37300109863281 19.975000381469727,52.51900100708008 17.08799934387207,52.51900100708008z M15.267000198364258,0 C15.267000198364258,0 0,0 0,0 C0,0 0,58.4379997253418 0,58.4379997253418 C0,58.4379997253418 9.08899974822998,58.50699996948242 16.76099967956543,58.50699996948242 C22.781999588012695,58.50699996948242 36.31999969482422,56.03499984741211 36.31999969482422,30.735000610351562 C36.31999969482422,24.073999404907227 38.5099983215332,0 15.267000198364258,0z"></path></g></g><g transform="matrix(1,0,0,1,487.8110046386719,58.73999786376953)" opacity="1" style="display: block;"><g opacity="1" transform="matrix(1,0,0,1,0,0)"><path fill="rgb(29,29,27)" fill-opacity="1" d=" M34.26900100708008,0 C34.26900100708008,0 34.26900100708008,5.9019999504089355 34.26900100708008,5.9019999504089355 C34.26900100708008,5.9019999504089355 6.744999885559082,5.9019999504089355 6.744999885559082,5.9019999504089355 C6.744999885559082,5.9019999504089355 6.744999885559082,26.472999572753906 6.744999885559082,26.472999572753906 C6.744999885559082,26.472999572753906 34.268001556396484,26.472999572753906 34.268001556396484,26.472999572753906 C34.268001556396484,26.472999572753906 34.268001556396484,31.871000289916992 34.268001556396484,31.871000289916992 C34.268001556396484,31.871000289916992 6.744999885559082,31.871000289916992 6.744999885559082,31.871000289916992 C6.744999885559082,31.871000289916992 6.744999885559082,52.5 6.744999885559082,52.5 C6.744999885559082,52.5 34.268001556396484,52.5 34.268001556396484,52.5 C34.268001556396484,52.5 34.268001556396484,58.439998626708984 34.268001556396484,58.439998626708984 C34.268001556396484,58.439998626708984 0,58.439998626708984 0,58.439998626708984 C0,58.439998626708984 0,0 0,0 C0,0 34.26900100708008,0 34.26900100708008,0z"></path></g></g></g></g></g><g clip-path="url(#__lottie_element_110)" style="display: block;" transform="matrix(1.5299999713897705,0,0,1.5299999713897705,54.235015869140625,29.975006103515625)" opacity="1"><g mask="url(#__lottie_element_201)" style="display: block;"><g transform="matrix(-0.6499999761581421,0,0,-0.6499999761581421,150.00015258789062,-73.61124420166016)" opacity="1"><g opacity="1" transform="matrix(1,0,0,1,0,0)"><path fill="rgb(29,29,27)" fill-opacity="1" d=" M18.599000930786133,41.95899963378906 C18.599000930786133,41.95899963378906 62.14799880981445,13.08899974822998 62.14799880981445,13.08899974822998 C64.47200012207031,11.49899959564209 66.43000030517578,9.786999702453613 66.43000030517578,6.605999946594238 C66.30799865722656,3.180999994277954 63.49399948120117,0 59.94599914550781,0 C58.111000061035156,0 56.39899826049805,0.8560000061988831 54.930999755859375,1.8350000381469727 C54.930999755859375,1.8350000381469727 4.5320000648498535,35.35300064086914 4.5320000648498535,35.35300064086914 C1.840999960899353,37.066001892089844 -0.11699999868869781,38.534000396728516 0.004999999888241291,41.95899963378906 C0.004999999888241291,45.50699996948242 1.840999960899353,46.85100173950195 4.5320000648498535,48.56399917602539 C4.5320000648498535,48.56399917602539 54.808998107910156,81.95999908447266 54.808998107910156,81.95999908447266 C56.277000427246094,82.93900299072266 57.98899841308594,84.04000091552734 60.069000244140625,84.04000091552734 C63.49399948120117,84.04000091552734 66.43000030517578,80.73699951171875 66.43000030517578,77.31199645996094 C66.30799865722656,74.25399780273438 64.83999633789062,72.66300201416016 62.393001556396484,71.072998046875 C62.393001556396484,71.072998046875 18.599000930786133,41.95899963378906 18.599000930786133,41.95899963378906z"></path></g><g opacity="1" transform="matrix(1,0,0,1,0,0)"></g></g></g><g mask="url(#__lottie_element_195)" style="display: block;"><g transform="matrix(0.6499999761581421,0,0,0.6499999761581421,44.000099182128906,-51.783599853515625)" opacity="1"><g opacity="1" transform="matrix(1,0,0,1,0,0)"><path fill="rgb(29,29,27)" fill-opacity="1" d=" M18.599000930786133,41.95899963378906 C18.599000930786133,41.95899963378906 62.14799880981445,13.08899974822998 62.14799880981445,13.08899974822998 C64.47200012207031,11.49899959564209 66.43000030517578,9.786999702453613 66.43000030517578,6.605999946594238 C66.30799865722656,3.180999994277954 63.49399948120117,0 59.94599914550781,0 C58.111000061035156,0 56.39899826049805,0.8560000061988831 54.930999755859375,1.8350000381469727 C54.930999755859375,1.8350000381469727 4.5320000648498535,35.35300064086914 4.5320000648498535,35.35300064086914 C1.840999960899353,37.066001892089844 -0.11699999868869781,38.534000396728516 0.004999999888241291,41.95899963378906 C0.004999999888241291,45.50699996948242 1.840999960899353,46.85100173950195 4.5320000648498535,48.56399917602539 C4.5320000648498535,48.56399917602539 54.808998107910156,81.95999908447266 54.808998107910156,81.95999908447266 C56.277000427246094,82.93900299072266 57.98899841308594,84.04000091552734 60.069000244140625,84.04000091552734 C63.49399948120117,84.04000091552734 66.43000030517578,80.73699951171875 66.43000030517578,77.31199645996094 C66.30799865722656,74.25399780273438 64.83999633789062,72.66300201416016 62.393001556396484,71.072998046875 C62.393001556396484,71.072998046875 18.599000930786133,41.95899963378906 18.599000930786133,41.95899963378906z"></path></g><g opacity="1" transform="matrix(1,0,0,1,0,0)"></g></g></g><g mask="url(#__lottie_element_158)" style="display: block;"><g clip-path="url(#__lottie_element_162)" transform="matrix(0.6499999761581421,0,0,0.6499999761581421,24.725000381469727,21.17500114440918)" opacity="0"><g style="display: block;" transform="matrix(1,0,0,1,122.01899719238281,-206)" opacity="1"><g opacity="1" transform="matrix(1,0,0,1,0,0)"><path fill="rgb(29,29,27)" fill-opacity="1" d=" M32.07500076293945,73.22200012207031 C32.07500076293945,73.22200012207031 32.07500076293945,53.99800109863281 32.07500076293945,53.99800109863281 C32.07500076293945,49.46200180053711 30.9950008392334,45.57500076293945 27.7549991607666,42.01100158691406 C31.10300064086914,38.66299819946289 32.07500076293945,34.775001525878906 32.07500076293945,30.131000518798828 C32.07500076293945,30.131000518798828 32.07500076293945,10.800000190734863 32.07500076293945,10.800000190734863 C32.07500076293945,10.800000190734863 47.95100021362305,10.800000190734863 47.95100021362305,10.800000190734863 C50.75899887084961,10.800000190734863 53.349998474121094,9.288000106811523 53.349998474121094,5.400000095367432 C53.349998474121094,1.5119999647140503 50.75899887084961,0 47.95100021362305,0 C47.95100021362305,0 33.26300048828125,0 33.26300048828125,0 C29.267000198364258,0 26.35099983215332,0.7559999823570251 23.650999069213867,3.996000051498413 C21.382999420166016,6.696000099182129 21.274999618530273,8.748000144958496 21.274999618530273,12.095999717712402 C21.274999618530273,12.095999717712402 21.274999618530273,29.159000396728516 21.274999618530273,29.159000396728516 C21.274999618530273,34.775001525878906 19.871999740600586,36.611000061035156 14.14799976348877,36.611000061035156 C14.14799976348877,36.611000061035156 5.400000095367432,36.611000061035156 5.400000095367432,36.611000061035156 C2.5920000076293945,36.611000061035156 0,38.12300109863281 0,42.01100158691406 C0,45.89899826049805 2.5920000076293945,47.4109992980957 5.400000095367432,47.4109992980957 C5.400000095367432,47.4109992980957 14.14799976348877,47.4109992980957 14.14799976348877,47.4109992980957 C19.871999740600586,47.4109992980957 21.274999618530273,49.24599838256836 21.274999618530273,54.86199951171875 C21.274999618530273,54.86199951171875 21.274999618530273,71.9260025024414 21.274999618530273,71.9260025024414 C21.274999618530273,75.27400207519531 21.382999420166016,77.32599639892578 23.650999069213867,80.0260009765625 C26.35099983215332,83.26599884033203 29.267000198364258,84.02200317382812 33.26300048828125,84.02200317382812 C33.26300048828125,84.02200317382812 47.95100021362305,84.02200317382812 47.95100021362305,84.02200317382812 C50.75899887084961,84.02200317382812 53.349998474121094,82.51000213623047 53.349998474121094,78.62200164794922 C53.349998474121094,74.73400115966797 50.75899887084961,73.22200012207031 47.95100021362305,73.22200012207031 C47.95100021362305,73.22200012207031 32.07500076293945,73.22200012207031 32.07500076293945,73.22200012207031z"></path></g></g><g style="display: block;" transform="matrix(1,0,0,1,27.5,-93.37899780273438)" opacity="1"><g opacity="1" transform="matrix(1,0,0,1,0,0)"><path fill="rgb(29,29,27)" fill-opacity="1" d=" M32.07500076293945,73.22200012207031 C32.07500076293945,73.22200012207031 32.07500076293945,53.99800109863281 32.07500076293945,53.99800109863281 C32.07500076293945,49.46200180053711 30.9950008392334,45.57500076293945 27.7549991607666,42.01100158691406 C31.10300064086914,38.66299819946289 32.07500076293945,34.775001525878906 32.07500076293945,30.131000518798828 C32.07500076293945,30.131000518798828 32.07500076293945,10.800000190734863 32.07500076293945,10.800000190734863 C32.07500076293945,10.800000190734863 47.95100021362305,10.800000190734863 47.95100021362305,10.800000190734863 C50.75899887084961,10.800000190734863 53.349998474121094,9.288000106811523 53.349998474121094,5.400000095367432 C53.349998474121094,1.5119999647140503 50.75899887084961,0 47.95100021362305,0 C47.95100021362305,0 33.26300048828125,0 33.26300048828125,0 C29.267000198364258,0 26.35099983215332,0.7559999823570251 23.650999069213867,3.996000051498413 C21.382999420166016,6.696000099182129 21.274999618530273,8.748000144958496 21.274999618530273,12.095999717712402 C21.274999618530273,12.095999717712402 21.274999618530273,29.159000396728516 21.274999618530273,29.159000396728516 C21.274999618530273,34.775001525878906 19.871999740600586,36.611000061035156 14.14799976348877,36.611000061035156 C14.14799976348877,36.611000061035156 5.400000095367432,36.611000061035156 5.400000095367432,36.611000061035156 C2.5920000076293945,36.611000061035156 0,38.12300109863281 0,42.01100158691406 C0,45.89899826049805 2.5920000076293945,47.4109992980957 5.400000095367432,47.4109992980957 C5.400000095367432,47.4109992980957 14.14799976348877,47.4109992980957 14.14799976348877,47.4109992980957 C19.871999740600586,47.4109992980957 21.274999618530273,49.24599838256836 21.274999618530273,54.86199951171875 C21.274999618530273,54.86199951171875 21.274999618530273,71.9260025024414 21.274999618530273,71.9260025024414 C21.274999618530273,75.27400207519531 21.382999420166016,77.32599639892578 23.650999069213867,80.0260009765625 C26.35099983215332,83.26599884033203 29.267000198364258,84.02200317382812 33.26300048828125,84.02200317382812 C33.26300048828125,84.02200317382812 47.95100021362305,84.02200317382812 47.95100021362305,84.02200317382812 C50.75899887084961,84.02200317382812 53.349998474121094,82.51000213623047 53.349998474121094,78.62200164794922 C53.349998474121094,74.73400115966797 50.75899887084961,73.22200012207031 47.95100021362305,73.22200012207031 C47.95100021362305,73.22200012207031 32.07500076293945,73.22200012207031 32.07500076293945,73.22200012207031z"></path></g></g><g style="display: block;" transform="matrix(1,0,0,1,150.5189971923828,-158)" opacity="1"><g opacity="1" transform="matrix(1,0,0,1,0,0)"><path fill="rgb(29,29,27)" fill-opacity="1" d=" M9.748000144958496,13.28600025177002 C11.336999893188477,13.28600025177002 12.491999626159668,13.28600025177002 13.503000259399414,11.913999557495117 C14.29699993133545,10.831000328063965 14.29699993133545,10.036999702453613 14.29699993133545,8.664999961853027 C14.29699993133545,8.664999961853027 14.29699993133545,4.620999813079834 14.29699993133545,4.620999813079834 C14.29699993133545,3.249000072479248 14.29699993133545,2.4549999237060547 13.503000259399414,1.371999979019165 C12.491999626159668,0 11.336999893188477,0 9.748000144958496,0 C9.748000144958496,0 4.548999786376953,0 4.548999786376953,0 C2.9600000381469727,0 1.8049999475479126,0 0.7940000295639038,1.371999979019165 C0,2.4549999237060547 0,3.249000072479248 0,4.620999813079834 C0,4.620999813079834 0,8.664999961853027 0,8.664999961853027 C0,10.036999702453613 0,10.831000328063965 0.7940000295639038,11.913999557495117 C1.8049999475479126,13.28600025177002 2.9600000381469727,13.28600025177002 4.548999786376953,13.28600025177002 C4.548999786376953,13.28600025177002 9.748000144958496,13.28600025177002 9.748000144958496,13.28600025177002z M9.748000144958496,37.83700180053711 C11.336999893188477,37.83700180053711 12.491999626159668,37.83700180053711 13.503000259399414,36.46500015258789 C14.29699993133545,35.38199996948242 14.29699993133545,34.5880012512207 14.29699993133545,33.215999603271484 C14.29699993133545,33.215999603271484 14.29699993133545,29.172000885009766 14.29699993133545,29.172000885009766 C14.29699993133545,27.799999237060547 14.29699993133545,27.006000518798828 13.503000259399414,25.92300033569336 C12.491999626159668,24.551000595092773 11.336999893188477,24.551000595092773 9.748000144958496,24.551000595092773 C9.748000144958496,24.551000595092773 4.548999786376953,24.551000595092773 4.548999786376953,24.551000595092773 C2.9600000381469727,24.551000595092773 1.8049999475479126,24.551000595092773 0.7940000295639038,25.92300033569336 C0,27.006000518798828 0,27.799999237060547 0,29.172000885009766 C0,29.172000885009766 0,33.215999603271484 0,33.215999603271484 C0,34.5880012512207 0,35.38199996948242 0.7940000295639038,36.46500015258789 C1.8049999475479126,37.83700180053711 2.9600000381469727,37.83700180053711 4.548999786376953,37.83700180053711 C4.548999786376953,37.83700180053711 9.748000144958496,37.83700180053711 9.748000144958496,37.83700180053711z"></path></g></g><g style="display: block;" transform="matrix(1,0,0,1,31.456998825073242,-33.28499984741211)" opacity="1"><g opacity="1" transform="matrix(1,0,0,1,0,0)"><path fill="rgb(29,29,27)" fill-opacity="1" d=" M14.609999656677246,0 C14.609999656677246,0 0,0 0,0 C0,0 0,3.688999891281128 0,3.688999891281128 C0,3.688999891281128 3.1730000972747803,19.4060001373291 3.1730000972747803,19.4060001373291 C3.690000057220459,21.915000915527344 3.9839999675750732,23.833999633789062 7.304999828338623,23.833999633789062 C10.62600040435791,23.833999633789062 10.920000076293945,21.915000915527344 11.437000274658203,19.4060001373291 C11.437000274658203,19.4060001373291 14.609999656677246,3.688999891281128 14.609999656677246,3.688999891281128 C14.609999656677246,3.688999891281128 14.609999656677246,0 14.609999656677246,0z"></path></g></g><g style="display: block;" transform="matrix(1,0,0,1,57.28300094604492,-33.28499984741211)" opacity="1"><g opacity="1" transform="matrix(1,0,0,1,0,0)"><path fill="rgb(29,29,27)" fill-opacity="1" d=" M14.609999656677246,0 C14.609999656677246,0 0,0 0,0 C0,0 0,3.688999891281128 0,3.688999891281128 C0,3.688999891281128 3.1730000972747803,19.4060001373291 3.1730000972747803,19.4060001373291 C3.690000057220459,21.915000915527344 3.9839999675750732,23.833999633789062 7.304999828338623,23.833999633789062 C10.62600040435791,23.833999633789062 10.920000076293945,21.915000915527344 11.437000274658203,19.4060001373291 C11.437000274658203,19.4060001373291 14.609999656677246,3.688999891281128 14.609999656677246,3.688999891281128 C14.609999656677246,3.688999891281128 14.609999656677246,0 14.609999656677246,0z"></path></g></g><g style="display: block;" transform="matrix(1,0,0,1,54.17499923706055,-26.368000030517578)" opacity="1"></g><g style="display: block;" transform="matrix(1,0,0,1,31.5989990234375,-91.60800170898438)" opacity="1"><g opacity="1" transform="matrix(1,0,0,1,0,0)"><path fill="rgb(29,29,27)" fill-opacity="1" d=" M34.125999450683594,65.25800323486328 C34.125999450683594,65.25800323486328 27.420000076293945,71.00499725341797 27.420000076293945,71.00499725341797 C27.420000076293945,71.00499725341797 17.72100067138672,71.00499725341797 17.72100067138672,71.00499725341797 C11.375,71.00499725341797 11.973999977111816,69.20899963378906 11.973999977111816,66.21600341796875 C11.973999977111816,66.21600341796875 11.973999977111816,59.5099983215332 11.973999977111816,59.5099983215332 C11.973999977111816,59.5099983215332 21.194000244140625,51.36800003051758 21.194000244140625,51.36800003051758 C21.194000244140625,51.36800003051758 34.125999450683594,65.25800323486328 34.125999450683594,65.25800323486328z M22.152000427246094,34.9640007019043 C22.152000427246094,34.9640007019043 11.973999977111816,23.70800018310547 11.973999977111816,23.70800018310547 C11.973999977111816,23.70800018310547 11.973999977111816,19.517000198364258 11.973999977111816,19.517000198364258 C11.973999977111816,14.847000122070312 11.135000228881836,11.973999977111816 16.76300048828125,11.973999977111816 C16.76300048828125,11.973999977111816 30.05500030517578,11.973999977111816 30.05500030517578,11.973999977111816 C36.04199981689453,11.973999977111816 35.323001861572266,14.368000030517578 35.323001861572266,19.517000198364258 C35.323001861572266,19.517000198364258 35.323001861572266,23.70800018310547 35.323001861572266,23.70800018310547 C35.323001861572266,23.70800018310547 22.152000427246094,34.9640007019043 22.152000427246094,34.9640007019043z M56.03799819946289,62.025001525878906 C57.595001220703125,60.70800018310547 59.1510009765625,59.03099822998047 59.1510009765625,56.875999450683594 C59.1510009765625,53.52299880981445 56.39699935913086,50.650001525878906 53.04399871826172,50.650001525878906 C50.16999816894531,50.650001525878906 47.41699981689453,53.643001556396484 45.38100051879883,55.319000244140625 C45.38100051879883,55.319000244140625 43.10599899291992,57.23500061035156 43.10599899291992,57.23500061035156 C43.10599899291992,57.23500061035156 30.29400062561035,43.70500183105469 30.29400062561035,43.70500183105469 C30.29400062561035,43.70500183105469 43.10599899291992,32.68899917602539 43.10599899291992,32.68899917602539 C46.577999114990234,29.695999145507812 47.297000885009766,29.45599937438965 47.297000885009766,24.9060001373291 C47.297000885009766,24.9060001373291 47.297000885009766,16.52400016784668 47.297000885009766,16.52400016784668 C47.297000885009766,6.10699987411499 40.112998962402344,0 30.05500030517578,0 C30.05500030517578,0 16.76300048828125,0 16.76300048828125,0 C6.824999809265137,0 0,6.585999965667725 0,16.52400016784668 C0,16.52400016784668 0,24.9060001373291 0,24.9060001373291 C0,27.540000915527344 0,28.496999740600586 1.7960000038146973,30.533000946044922 C1.7960000038146973,30.533000946044922 13.052000045776367,42.62699890136719 13.052000045776367,42.62699890136719 C13.052000045776367,42.62699890136719 3.3529999256134033,51.12900161743164 3.3529999256134033,51.12900161743164 C0,54.00299835205078 0,54.48099899291992 0,58.672000885009766 C0,58.672000885009766 0,66.21600341796875 0,66.21600341796875 C0,71.125 1.1970000267028809,75.43599700927734 5.0289998054504395,79.02799987792969 C8.50100040435791,82.26100158691406 12.45300006866455,82.97899627685547 17.003000259399414,82.97899627685547 C17.003000259399414,82.97899627685547 27.89900016784668,82.97899627685547 27.89900016784668,82.97899627685547 C31.611000061035156,82.97899627685547 31.969999313354492,82.62000274658203 34.7239990234375,80.34500122070312 C34.7239990234375,80.34500122070312 42.268001556396484,73.9990005493164 42.268001556396484,73.9990005493164 C42.268001556396484,73.9990005493164 48.375,80.34500122070312 48.375,80.34500122070312 C49.8120002746582,81.9020004272461 51.249000549316406,82.97899627685547 53.40399932861328,82.97899627685547 C56.875999450683594,82.97899627685547 59.1510009765625,80.34500122070312 59.1510009765625,76.99199676513672 C59.1510009765625,74.23799896240234 55.67900085449219,70.76599884033203 53.882999420166016,68.97000122070312 C53.882999420166016,68.97000122070312 51.24800109863281,66.21600341796875 51.24800109863281,66.21600341796875 C51.24800109863281,66.21600341796875 56.03799819946289,62.025001525878906 56.03799819946289,62.025001525878906z"></path></g></g><g style="display: block;" transform="matrix(1,0,0,1,130.1179962158203,-177.66799926757812)" opacity="1"><g opacity="1" transform="matrix(1,0,0,1,0,0)"><path fill="rgb(29,29,27)" fill-opacity="1" d=" M53.16400146484375,11.973999977111816 C56.277000427246094,11.973999977111816 59.1510009765625,10.29800033569336 59.1510009765625,5.986999988555908 C59.1510009765625,1.6759999990463257 56.277000427246094,0 53.16400146484375,0 C53.16400146484375,0 5.986999988555908,0 5.986999988555908,0 C2.874000072479248,0 0,1.6759999990463257 0,5.986999988555908 C0,10.29800033569336 2.874000072479248,11.973999977111816 5.986999988555908,11.973999977111816 C5.986999988555908,11.973999977111816 53.16400146484375,11.973999977111816 53.16400146484375,11.973999977111816z M53.16400146484375,37.35900115966797 C56.277000427246094,37.35900115966797 59.1510009765625,35.68299865722656 59.1510009765625,31.371999740600586 C59.1510009765625,27.06100082397461 56.277000427246094,25.385000228881836 53.16400146484375,25.385000228881836 C53.16400146484375,25.385000228881836 5.986999988555908,25.385000228881836 5.986999988555908,25.385000228881836 C2.874000072479248,25.385000228881836 0,27.06100082397461 0,31.371999740600586 C0,35.68299865722656 2.874000072479248,37.35900115966797 5.986999988555908,37.35900115966797 C5.986999988555908,37.35900115966797 53.16400146484375,37.35900115966797 53.16400146484375,37.35900115966797z"></path></g></g><g style="display: block;" transform="matrix(-1,0,0,-1,192.90899658203125,99.031005859375)" opacity="1"><g opacity="1" transform="matrix(1,0,0,1,0,0)"><path fill="rgb(29,29,27)" fill-opacity="1" d=" M18.599000930786133,41.95899963378906 C18.599000930786133,41.95899963378906 62.14799880981445,13.08899974822998 62.14799880981445,13.08899974822998 C64.47200012207031,11.49899959564209 66.43000030517578,9.786999702453613 66.43000030517578,6.605999946594238 C66.30799865722656,3.180999994277954 63.49399948120117,0 59.94599914550781,0 C58.111000061035156,0 56.39899826049805,0.8560000061988831 54.930999755859375,1.8350000381469727 C54.930999755859375,1.8350000381469727 4.5320000648498535,35.35300064086914 4.5320000648498535,35.35300064086914 C1.840999960899353,37.066001892089844 -0.11699999868869781,38.534000396728516 0.004999999888241291,41.95899963378906 C0.004999999888241291,45.50699996948242 1.840999960899353,46.85100173950195 4.5320000648498535,48.56399917602539 C4.5320000648498535,48.56399917602539 54.808998107910156,81.95999908447266 54.808998107910156,81.95999908447266 C56.277000427246094,82.93900299072266 57.98899841308594,84.04000091552734 60.069000244140625,84.04000091552734 C63.49399948120117,84.04000091552734 66.43000030517578,80.73699951171875 66.43000030517578,77.31199645996094 C66.30799865722656,74.25399780273438 64.83999633789062,72.66300201416016 62.393001556396484,71.072998046875 C62.393001556396484,71.072998046875 18.599000930786133,41.95899963378906 18.599000930786133,41.95899963378906z"></path></g><g opacity="1" transform="matrix(1,0,0,1,0,0)"></g></g><g style="display: block;" transform="matrix(1,0,0,1,27.959999084472656,123.86199951171875)" opacity="1"><g opacity="1" transform="matrix(1,0,0,1,0,0)"><path fill="rgb(29,29,27)" fill-opacity="1" d=" M18.599000930786133,41.95899963378906 C18.599000930786133,41.95899963378906 62.14799880981445,13.08899974822998 62.14799880981445,13.08899974822998 C64.47200012207031,11.49899959564209 66.43000030517578,9.786999702453613 66.43000030517578,6.605999946594238 C66.30799865722656,3.180999994277954 63.49399948120117,0 59.94599914550781,0 C58.111000061035156,0 56.39899826049805,0.8560000061988831 54.930999755859375,1.8350000381469727 C54.930999755859375,1.8350000381469727 4.5320000648498535,35.35300064086914 4.5320000648498535,35.35300064086914 C1.840999960899353,37.066001892089844 -0.11699999868869781,38.534000396728516 0.004999999888241291,41.95899963378906 C0.004999999888241291,45.50699996948242 1.840999960899353,46.85100173950195 4.5320000648498535,48.56399917602539 C4.5320000648498535,48.56399917602539 54.808998107910156,81.95999908447266 54.808998107910156,81.95999908447266 C56.277000427246094,82.93900299072266 57.98899841308594,84.04000091552734 60.069000244140625,84.04000091552734 C63.49399948120117,84.04000091552734 66.43000030517578,80.73699951171875 66.43000030517578,77.31199645996094 C66.30799865722656,74.25399780273438 64.83999633789062,72.66300201416016 62.393001556396484,71.072998046875 C62.393001556396484,71.072998046875 18.599000930786133,41.95899963378906 18.599000930786133,41.95899963378906z"></path></g><g opacity="1" transform="matrix(1,0,0,1,0,0)"></g></g></g></g><g style="display: block;" transform="matrix(0.6499999761581421,0,0,0.6499999761581421,212.46360778808594,63.41590118408203)" opacity="1"><g opacity="1" transform="matrix(1,0,0,1,0,0)"><path fill="rgb(29,29,27)" fill-opacity="1" d=" M48.112998962402344,19.843000411987305 C48.112998962402344,19.843000411987305 55.49100112915039,16.618000030517578 55.49100112915039,16.618000030517578 C55.49100112915039,16.618000030517578 53.077999114990234,0 31.172000885009766,0 C9.237000465393066,0 2.818000078201294,15.918999671936035 0.8980000019073486,31.40399932861328 C-1.0740000009536743,46.88999938964844 0.5210000276565552,63.391998291015625 2.615000009536743,69.06400299072266 C4.679999828338623,74.66899871826172 7.76200008392334,86.84200286865234 22.77899932861328,90.01000213623047 C37.80099868774414,93.23699951171875 45.49700164794922,87.86000061035156 47.00899887084961,86.697998046875 C48.49100112915039,85.53700256347656 54.097999572753906,80.39199829101562 55.49300003051758,74.32099914550781 C55.49300003051758,74.32099914550781 48.257999420166016,71.35800170898438 48.257999420166016,71.35800170898438 C48.257999420166016,71.35800170898438 44.104000091552734,83.7040023803711 28.76300048828125,81.6729965209961 C13.394000053405762,79.60800170898438 11.447999954223633,63.400001525878906 10.604999542236328,54.915000915527344 C9.819999694824219,46.43000030517578 10.288000106811523,27.312000274658203 14.293999671936035,20.398000717163086 C18.304000854492188,13.539999961853027 23.707000732421875,8.92300033569336 31.726999282836914,8.92300033569336 C39.777000427246094,8.918999671936035 45.96500015258789,13.394000053405762 48.112998962402344,19.843000411987305z"></path></g></g><g style="display: block;" transform="matrix(0.6499999761581421,0,0,0.6499999761581421,41.53205108642578,63.473751068115234)" opacity="1"><g opacity="1" transform="matrix(1,0,0,1,0,0)"><path fill="rgb(29,29,27)" fill-opacity="1" d=" M0,0 C0,0 10.081999778747559,0 10.081999778747559,0 C10.081999778747559,0 10.081999778747559,81.08899688720703 10.081999778747559,81.08899688720703 C10.081999778747559,81.08899688720703 57.17900085449219,81.08899688720703 57.17900085449219,81.08899688720703 C57.17900085449219,81.08899688720703 57.17900085449219,90.8499984741211 57.17900085449219,90.8499984741211 C57.17900085449219,90.8499984741211 0,90.8499984741211 0,90.8499984741211 C0,90.8499984741211 0,0 0,0z"></path></g></g><g mask="url(#__lottie_element_129)" style="display: block;"><g clip-path="url(#__lottie_element_133)" transform="matrix(1,0,0,1,-17,5)" opacity="1"><g style="display: block;" transform="matrix(1,0,0,1,58.6349983215332,58.590003967285156)" opacity="1"><g opacity="1" transform="matrix(1,0,0,1,0,0)"><path fill="rgb(29,29,27)" fill-opacity="1" d=" M0,0 C0,0 6.501999855041504,0 6.501999855041504,0 C6.501999855041504,0 6.501999855041504,52.29499816894531 6.501999855041504,52.29499816894531 C6.501999855041504,52.29499816894531 36.875,52.29499816894531 36.875,52.29499816894531 C36.875,52.29499816894531 36.875,58.59000015258789 36.875,58.59000015258789 C36.875,58.59000015258789 0,58.59000015258789 0,58.59000015258789 C0,58.59000015258789 0,0 0,0z"></path></g></g><g style="display: block;" transform="matrix(1,0,0,1,121.51699829101562,58.590003967285156)" opacity="1"><g opacity="1" transform="matrix(1,0,0,1,0,0)"><path fill="rgb(29,29,27)" fill-opacity="1" d=" M0,0 C0,0 34.119998931884766,0 34.119998931884766,0 C34.119998931884766,0 34.119998931884766,5.919000148773193 34.119998931884766,5.919000148773193 C34.119998931884766,5.919000148773193 6.690000057220459,5.919000148773193 6.690000057220459,5.919000148773193 C6.690000057220459,5.919000148773193 6.690000057220459,26.250999450683594 6.690000057220459,26.250999450683594 C6.690000057220459,26.250999450683594 34.119998931884766,26.250999450683594 34.119998931884766,26.250999450683594 C34.119998931884766,26.250999450683594 34.119998931884766,32.358001708984375 34.119998931884766,32.358001708984375 C34.119998931884766,32.358001708984375 6.521999835968018,32.358001708984375 6.521999835968018,32.358001708984375 C6.521999835968018,32.358001708984375 6.521999835968018,52.08700180053711 6.521999835968018,52.08700180053711 C6.521999835968018,52.08700180053711 34.119998931884766,52.08700180053711 34.119998931884766,52.08700180053711 C34.119998931884766,52.08700180053711 34.119998931884766,58.5880012512207 34.119998931884766,58.5880012512207 C34.119998931884766,58.5880012512207 0,58.5880012512207 0,58.5880012512207 C0,58.5880012512207 0,0 0,0z"></path></g></g><g style="display: block;" transform="matrix(1,0,0,1,181.64199829101562,58.590003967285156)" opacity="1"><g opacity="1" transform="matrix(1,0,0,1,0,0)"><path fill="rgb(29,29,27)" fill-opacity="1" d=" M0,0 C0,0 36.875,0 36.875,0 C36.875,0 36.875,5.73199987411499 36.875,5.73199987411499 C36.875,5.73199987411499 21.881999969482422,5.73199987411499 21.881999969482422,5.73199987411499 C21.881999969482422,5.73199987411499 21.881999969482422,58.5890007019043 21.881999969482422,58.5890007019043 C21.881999969482422,58.5890007019043 14.821999549865723,58.5890007019043 14.821999549865723,58.5890007019043 C14.821999549865723,58.5890007019043 14.821999549865723,5.921000003814697 14.821999549865723,5.921000003814697 C14.821999549865723,5.921000003814697 0,5.921000003814697 0,5.921000003814697 C0,5.921000003814697 0,0 0,0z"></path></g></g><g style="display: block;" transform="matrix(1,0,0,1,228.27000427246094,58.590003967285156)" opacity="1"><g opacity="1" transform="matrix(1,0,0,1,0,0)"><path fill="rgb(29,29,27)" fill-opacity="1" d=" M0,8.769000053405762 C0,8.769000053405762 0,0 0,0 C0,0 6.706999778747559,0 6.706999778747559,0 C6.706999778747559,0 6.706999778747559,10.75 6.706999778747559,10.75 C6.818999767303467,14.079000473022461 6.139999866485596,17.933000564575195 2.734999895095825,20.94700050354004 C2.734999895095825,20.94700050354004 1.3860000371932983,19.40999984741211 1.3860000371932983,19.40999984741211 C1.3860000371932983,19.40999984741211 4.901000022888184,17.427000045776367 4.270999908447266,8.769000053405762 C4.270999908447266,8.769000053405762 0,8.769000053405762 0,8.769000053405762z"></path></g></g><g style="display: block;" transform="matrix(1,0,0,1,244.74900817871094,58.58199691772461)" opacity="1"><g opacity="1" transform="matrix(1,0,0,1,0,0)"><path fill="rgb(29,29,27)" fill-opacity="1" d=" M28.104000091552734,10.644000053405762 C28.104000091552734,10.644000053405762 32.07600021362305,8.319999694824219 32.07600021362305,8.319999694824219 C32.07600021362305,8.319999694824219 29.642000198364258,-0.01899999938905239 17.29199981689453,0 C4.9629998207092285,0.039000000804662704 1.2350000143051147,6.840000152587891 1.3849999904632568,16.07699966430664 C1.534999966621399,25.312999725341797 7.906000137329102,28.23699951171875 15.156999588012695,31.47800064086914 C22.38800048828125,34.742000579833984 27.20400047302246,35.750999450683594 26.849000930786133,44.78200149536133 C26.472999572753906,53.8129997253418 16.375,52.72700119018555 16.375,52.72700119018555 C11.58899974822998,52.94200134277344 7.058000087738037,50.564998626708984 4.514999866485596,46.505001068115234 C4.514999866485596,46.505001068115234 0,49.29600143432617 0,49.29600143432617 C0,49.29600143432617 3.5399999618530273,58.36600112915039 15.58899974822998,58.590999603271484 C27.65399932861328,58.83399963378906 32.224998474121094,53.15700149536133 32.77000045776367,45.625 C33.275001525878906,38.07500076293945 31.065000534057617,32.35900115966797 24.393999099731445,28.801000595092773 C17.724000930786133,25.260000228881836 14.107000350952148,25.183000564575195 10.866999626159668,22.56100082397461 C7.603000164031982,19.937999725341797 6.25600004196167,17.33300018310547 7.698999881744385,11.805000305175781 C9.086000442504883,6.241000175476074 15.156999588012695,5.453999996185303 19.16699981689453,5.604000091552734 C22.80299949645996,5.677000045776367 26.15999984741211,7.570000171661377 28.104000091552734,10.644000053405762z"></path></g></g></g></g><g mask="url(#__lottie_element_113)" style="display: block;"><g clip-path="url(#__lottie_element_117)" transform="matrix(1,0,0,1,0,3.75)" opacity="1"><g style="display: block;" transform="matrix(1,0,0,1,365.1319885253906,58.59400177001953)" opacity="1"><g opacity="1" transform="matrix(1,0,0,1,0,0)"><path fill="rgb(29,29,27)" fill-opacity="1" d=" M20.4060001373291,52.7599983215332 C9.555999755859375,52.7599983215332 6.572000026702881,42.744998931884766 6.572000026702881,29.31399917602539 C6.572000026702881,15.16100025177002 9.734999656677246,5.818999767303467 20.437999725341797,5.818999767303467 C31.566999435424805,5.818999767303467 34.23899841308594,16.35700035095215 34.23899841308594,29.31399917602539 C34.23899841308594,42.393001556396484 31.354999542236328,52.7599983215332 20.4060001373291,52.7599983215332z M20.364999771118164,0 C4.385000228881836,0 0,11.989999771118164 0,29.363000869750977 C0,45.45800018310547 3.9170000553131104,58.58599853515625 20.381000518798828,58.58599853515625 C36.48400115966797,58.58599853515625 40.75400161743164,46.02299880981445 40.75400161743164,29.363000869750977 C40.75400161743164,13.432000160217285 37.426998138427734,0 20.364999771118164,0z"></path></g></g><g style="display: block;" transform="matrix(1,0,0,1,428.6800231933594,58.673004150390625)" opacity="1"><g opacity="1" transform="matrix(1,0,0,1,0,0)"><path fill="rgb(29,29,27)" fill-opacity="1" d=" M17.08799934387207,52.51900100708008 C17.08799934387207,52.51900100708008 7.008999824523926,52.51900100708008 7.008999824523926,52.51900100708008 C7.008999824523926,52.51900100708008 7.008999824523926,5.89900016784668 7.008999824523926,5.89900016784668 C7.008999824523926,5.89900016784668 14.27299976348877,5.89900016784668 14.27299976348877,5.89900016784668 C17.586000442504883,5.89900016784668 29.513999938964844,4.064000129699707 29.513999938964844,29.263999938964844 C29.513999938964844,52.37300109863281 19.975000381469727,52.51900100708008 17.08799934387207,52.51900100708008z M15.267000198364258,0 C15.267000198364258,0 0,0 0,0 C0,0 0,58.4379997253418 0,58.4379997253418 C0,58.4379997253418 9.08899974822998,58.50699996948242 16.76099967956543,58.50699996948242 C22.781999588012695,58.50699996948242 36.31999969482422,56.03499984741211 36.31999969482422,30.735000610351562 C36.31999969482422,24.073999404907227 38.5099983215332,0 15.267000198364258,0z"></path></g></g><g style="display: block;" transform="matrix(1,0,0,1,487.8110046386719,58.73999786376953)" opacity="1"><g opacity="1" transform="matrix(1,0,0,1,0,0)"><path fill="rgb(29,29,27)" fill-opacity="1" d=" M34.26900100708008,0 C34.26900100708008,0 34.26900100708008,5.9019999504089355 34.26900100708008,5.9019999504089355 C34.26900100708008,5.9019999504089355 6.744999885559082,5.9019999504089355 6.744999885559082,5.9019999504089355 C6.744999885559082,5.9019999504089355 6.744999885559082,26.472999572753906 6.744999885559082,26.472999572753906 C6.744999885559082,26.472999572753906 34.268001556396484,26.472999572753906 34.268001556396484,26.472999572753906 C34.268001556396484,26.472999572753906 34.268001556396484,31.871000289916992 34.268001556396484,31.871000289916992 C34.268001556396484,31.871000289916992 6.744999885559082,31.871000289916992 6.744999885559082,31.871000289916992 C6.744999885559082,31.871000289916992 6.744999885559082,52.5 6.744999885559082,52.5 C6.744999885559082,52.5 34.268001556396484,52.5 34.268001556396484,52.5 C34.268001556396484,52.5 34.268001556396484,58.439998626708984 34.268001556396484,58.439998626708984 C34.268001556396484,58.439998626708984 0,58.439998626708984 0,58.439998626708984 C0,58.439998626708984 0,0 0,0 C0,0 34.26900100708008,0 34.26900100708008,0z"></path></g></g></g></g></g><g clip-path="url(#__lottie_element_12)" style="display: none;"><g mask="url(#__lottie_element_103)" style="display: none;"><g><g><path></path></g><g></g></g></g><g mask="url(#__lottie_element_97)" style="display: none;"><g><g><path></path></g><g></g></g></g><g mask="url(#__lottie_element_60)" style="display: none;"><g clip-path="url(#__lottie_element_64)"><g style="display: none;"><g><path></path></g></g><g style="display: none;"><g><path></path></g></g><g style="display: none;"><g><path></path></g></g><g style="display: none;"><g><path></path></g></g><g style="display: none;"><g><path></path></g></g><g style="display: none;"></g><g style="display: none;"><g><path></path></g></g><g style="display: none;"><g><path></path></g></g><g style="display: none;"><g><path></path></g><g></g></g><g style="display: none;"><g><path></path></g><g></g></g></g></g><g style="display: none;"><g><path></path></g></g><g style="display: none;"><g><path></path></g></g><g mask="url(#__lottie_element_31)" style="display: none;"><g clip-path="url(#__lottie_element_35)"><g style="display: none;"><g><path></path></g></g><g style="display: none;"><g><path></path></g></g><g style="display: none;"><g><path></path></g></g><g style="display: none;"><g><path></path></g></g><g style="display: none;"><g><path></path></g></g></g></g><g mask="url(#__lottie_element_15)" style="display: none;"><g clip-path="url(#__lottie_element_19)"><g style="display: none;"><g><path></path></g></g><g style="display: none;"><g><path></path></g></g><g style="display: none;"><g><path></path></g></g></g></g></g></g></g></g></svg>